{
	"asset":{
		"generator":"Khronos glTF Blender I/O v3.6.27",
		"version":"2.0"
	},
	"extensionsUsed":[
		"KHR_materials_emissive_strength"
	],
	"scene":0,
	"scenes":[
		{
			"name":"Scene",
			"nodes":[
				0,
				1,
				2,
				3
			]
		}
	],
	"nodes":[
		{
			"mesh":0,
			"name":"Cube"
		},
		{
			"mesh":1,
			"name":"Cube.001",
			"translation":[
				0,
				-0.2912219762802124,
				0
			]
		},
		{
			"mesh":2,
			"name":"Cube.002",
			"translation":[
				0,
				-0.2912219762802124,
				0
			]
		},
		{
			"mesh":3,
			"name":"Cube.003",
			"scale":[
				1.0968716144561768,
				1.0968716144561768,
				1
			],
			"translation":[
				0,
				-0.27881690859794617,
				-0.11357510834932327
			]
		}
	],
	"materials":[
		{
			"doubleSided":true,
			"name":"Base",
			"pbrMetallicRoughness":{
				"baseColorFactor":[
					0.004356294870376587,
					0.004356294870376587,
					0.004356294870376587,
					1
				],
				"metallicFactor":0,
				"roughnessFactor":0.7409090995788574
			}
		},
		{
			"doubleSided":true,
			"name":"HouseMain",
			"pbrMetallicRoughness":{
				"baseColorFactor":[
					0.021298661828041077,
					0.021298661828041077,
					0.021298661828041077,
					1
				],
				"metallicFactor":0
			}
		},
		{
			"doubleSided":true,
			"name":"HouseAccent",
			"pbrMetallicRoughness":{
				"baseColorFactor":[
					0.4354327917098999,
					0,
					0.007461977191269398,
					1
				],
				"metallicFactor":0,
				"roughnessFactor":0.7045454382896423
			}
		},
		{
			"doubleSided":true,
			"emissiveFactor":[
				1,
				0,
				0.0028692601341210144
			],
			"extensions":{
				"KHR_materials_emissive_strength":{
					"emissiveStrength":39.99062395185206
				}
			},
			"name":"Emissives",
			"pbrMetallicRoughness":{
				"baseColorFactor":[
					0.7956219911575317,
					0,
					0.0051747895777225494,
					1
				],
				"metallicFactor":0,
				"roughnessFactor":0.5
			}
		}
	],
	"meshes":[
		{
			"name":"Cube.001",
			"primitives":[
				{
					"attributes":{
						"POSITION":0,
						"NORMAL":1,
						"TEXCOORD_0":2
					},
					"indices":3,
					"material":0
				}
			]
		},
		{
			"name":"Cube.002",
			"primitives":[
				{
					"attributes":{
						"POSITION":4,
						"NORMAL":5,
						"TEXCOORD_0":6
					},
					"indices":7,
					"material":1
				},
				{
					"attributes":{
						"POSITION":8,
						"NORMAL":9,
						"TEXCOORD_0":10
					},
					"indices":11,
					"material":2
				},
				{
					"attributes":{
						"POSITION":12,
						"NORMAL":13,
						"TEXCOORD_0":14
					},
					"indices":15,
					"material":3
				}
			]
		},
		{
			"name":"Cube.003",
			"primitives":[
				{
					"attributes":{
						"POSITION":16,
						"NORMAL":17,
						"TEXCOORD_0":18
					},
					"indices":19,
					"material":1
				}
			]
		},
		{
			"name":"Cube.004",
			"primitives":[
				{
					"attributes":{
						"POSITION":20,
						"NORMAL":21,
						"TEXCOORD_0":22
					},
					"indices":23,
					"material":2
				},
				{
					"attributes":{
						"POSITION":24,
						"NORMAL":25,
						"TEXCOORD_0":26
					},
					"indices":27,
					"material":3
				}
			]
		}
	],
	"accessors":[
		{
			"bufferView":0,
			"componentType":5126,
			"count":52,
			"max":[
				1,
				0.09366747736930847,
				1
			],
			"min":[
				-1,
				0,
				-1
			],
			"type":"VEC3"
		},
		{
			"bufferView":1,
			"componentType":5126,
			"count":52,
			"type":"VEC3"
		},
		{
			"bufferView":2,
			"componentType":5126,
			"count":52,
			"type":"VEC2"
		},
		{
			"bufferView":3,
			"componentType":5123,
			"count":108,
			"type":"SCALAR"
		},
		{
			"bufferView":4,
			"componentType":5126,
			"count":1090,
			"max":[
				0.9080595970153809,
				1.442199468612671,
				0.9014078378677368
			],
			"min":[
				-0.9079972505569458,
				0.34703612327575684,
				-0.006620645523071289
			],
			"type":"VEC3"
		},
		{
			"bufferView":5,
			"componentType":5126,
			"count":1090,
			"type":"VEC3"
		},
		{
			"bufferView":6,
			"componentType":5126,
			"count":1090,
			"type":"VEC2"
		},
		{
			"bufferView":7,
			"componentType":5123,
			"count":4020,
			"type":"SCALAR"
		},
		{
			"bufferView":8,
			"componentType":5126,
			"count":208,
			"max":[
				0.7150256633758545,
				0.949639081954956,
				0.7083739042282104
			],
			"min":[
				-0.7149633169174194,
				0.8560037612915039,
				0.18641331791877747
			],
			"type":"VEC3"
		},
		{
			"bufferView":9,
			"componentType":5126,
			"count":208,
			"type":"VEC3"
		},
		{
			"bufferView":10,
			"componentType":5126,
			"count":208,
			"type":"VEC2"
		},
		{
			"bufferView":11,
			"componentType":5123,
			"count":672,
			"type":"SCALAR"
		},
		{
			"bufferView":12,
			"componentType":5126,
			"count":320,
			"max":[
				0.7163568139076233,
				0.9401468634605408,
				0.7097050547599792
			],
			"min":[
				-0.7162944078445435,
				0.8654959797859192,
				0.18508216738700867
			],
			"type":"VEC3"
		},
		{
			"bufferView":13,
			"componentType":5126,
			"count":320,
			"type":"VEC3"
		},
		{
			"bufferView":14,
			"componentType":5126,
			"count":320,
			"type":"VEC2"
		},
		{
			"bufferView":15,
			"componentType":5123,
			"count":480,
			"type":"SCALAR"
		},
		{
			"bufferView":16,
			"componentType":5126,
			"count":36,
			"max":[
				0.7337403297424316,
				0.7051271200180054,
				-0.08030566573143005
			],
			"min":[
				-0.7337403297424316,
				0.32362037897109985,
				-0.7819945812225342
			],
			"type":"VEC3"
		},
		{
			"bufferView":17,
			"componentType":5126,
			"count":36,
			"type":"VEC3"
		},
		{
			"bufferView":18,
			"componentType":5126,
			"count":36,
			"type":"VEC2"
		},
		{
			"bufferView":19,
			"componentType":5123,
			"count":60,
			"type":"SCALAR"
		},
		{
			"bufferView":20,
			"componentType":5126,
			"count":760,
			"max":[
				0.7337403297424316,
				0.7051271200180054,
				-0.08030566573143005
			],
			"min":[
				-0.7337403297424316,
				0.19055739045143127,
				-0.5401052236557007
			],
			"type":"VEC3"
		},
		{
			"bufferView":21,
			"componentType":5126,
			"count":760,
			"type":"VEC3"
		},
		{
			"bufferView":22,
			"componentType":5126,
			"count":760,
			"type":"VEC2"
		},
		{
			"bufferView":23,
			"componentType":5123,
			"count":2280,
			"type":"SCALAR"
		},
		{
			"bufferView":24,
			"componentType":5126,
			"count":240,
			"max":[
				0.49600255489349365,
				0.710037887096405,
				-0.14352791011333466
			],
			"min":[
				-0.49600255489349365,
				0.6937835812568665,
				-0.4768829941749573
			],
			"type":"VEC3"
		},
		{
			"bufferView":25,
			"componentType":5126,
			"count":240,
			"type":"VEC3"
		},
		{
			"bufferView":26,
			"componentType":5126,
			"count":240,
			"type":"VEC2"
		},
		{
			"bufferView":27,
			"componentType":5123,
			"count":360,
			"type":"SCALAR"
		}
	],
	"bufferViews":[
		{
			"buffer":0,
			"byteLength":624,
			"byteOffset":0,
			"target":34962
		},
		{
			"buffer":0,
			"byteLength":624,
			"byteOffset":624,
			"target":34962
		},
		{
			"buffer":0,
			"byteLength":416,
			"byteOffset":1248,
			"target":34962
		},
		{
			"buffer":0,
			"byteLength":216,
			"byteOffset":1664,
			"target":34963
		},
		{
			"buffer":0,
			"byteLength":13080,
			"byteOffset":1880,
			"target":34962
		},
		{
			"buffer":0,
			"byteLength":13080,
			"byteOffset":14960,
			"target":34962
		},
		{
			"buffer":0,
			"byteLength":8720,
			"byteOffset":28040,
			"target":34962
		},
		{
			"buffer":0,
			"byteLength":8040,
			"byteOffset":36760,
			"target":34963
		},
		{
			"buffer":0,
			"byteLength":2496,
			"byteOffset":44800,
			"target":34962
		},
		{
			"buffer":0,
			"byteLength":2496,
			"byteOffset":47296,
			"target":34962
		},
		{
			"buffer":0,
			"byteLength":1664,
			"byteOffset":49792,
			"target":34962
		},
		{
			"buffer":0,
			"byteLength":1344,
			"byteOffset":51456,
			"target":34963
		},
		{
			"buffer":0,
			"byteLength":3840,
			"byteOffset":52800,
			"target":34962
		},
		{
			"buffer":0,
			"byteLength":3840,
			"byteOffset":56640,
			"target":34962
		},
		{
			"buffer":0,
			"byteLength":2560,
			"byteOffset":60480,
			"target":34962
		},
		{
			"buffer":0,
			"byteLength":960,
			"byteOffset":63040,
			"target":34963
		},
		{
			"buffer":0,
			"byteLength":432,
			"byteOffset":64000,
			"target":34962
		},
		{
			"buffer":0,
			"byteLength":432,
			"byteOffset":64432,
			"target":34962
		},
		{
			"buffer":0,
			"byteLength":288,
			"byteOffset":64864,
			"target":34962
		},
		{
			"buffer":0,
			"byteLength":120,
			"byteOffset":65152,
			"target":34963
		},
		{
			"buffer":0,
			"byteLength":9120,
			"byteOffset":65272,
			"target":34962
		},
		{
			"buffer":0,
			"byteLength":9120,
			"byteOffset":74392,
			"target":34962
		},
		{
			"buffer":0,
			"byteLength":6080,
			"byteOffset":83512,
			"target":34962
		},
		{
			"buffer":0,
			"byteLength":4560,
			"byteOffset":89592,
			"target":34963
		},
		{
			"buffer":0,
			"byteLength":2880,
			"byteOffset":94152,
			"target":34962
		},
		{
			"buffer":0,
			"byteLength":2880,
			"byteOffset":97032,
			"target":34962
		},
		{
			"buffer":0,
			"byteLength":1920,
			"byteOffset":99912,
			"target":34962
		},
		{
			"buffer":0,
			"byteLength":720,
			"byteOffset":101832,
			"target":34963
		}
	],
	"buffers":[
		{
			"byteLength":102552,
			"uri":"data:application/octet-stream;base64,"
		}
	]
}
